<svg xmlns="http://www.w3.org/2000/svg" viewBox="0 0 369.57 546.52"><defs><style>.cls-1{fill:#fff;}</style></defs><g id="Calque_2" data-name="Calque 2"><g id="tracé"><path id="trace_principale" data-name="trace principale" class="cls-1" d="M339.64,371.6,316.16,343C226.52,216.61,193.63,0,193.63,0c-72.09,21-69.27,50.3-69.27,50.3C127.86,447.76,0,546.52,0,546.52c112-30.06,121.07-103.75,121.07-103.75,110.5-48,207.54,65.19,207.54,65.19,57-71.56,40.95-103.21,31.2-113.64C352.89,386.92,346.06,379.44,339.64,371.6Zm-191.36,2c.55-1.91,36-124.16,36.2-160.63l46.25,130S170.11,341.21,148.28,373.58Z"/></g></g></svg>